# Blender 4.0.2
# www.blender.org
mtllib room.mtl
o Cube.001
v 5.000000 1.000000 -5.000000
v 5.000000 -1.000000 -5.000000
v 5.000000 1.000000 5.000000
v 5.000000 -1.000000 5.000000
v -5.000000 1.000000 -5.000000
v -5.000000 -1.000000 -5.000000
v -5.000000 1.000000 5.000000
v -5.000000 -1.000000 5.000000
v 3.000000 -1.000000 -5.000000
v 1.000000 -1.000000 -5.000000
v -1.000000 -1.000000 -5.000000
v -3.000000 -1.000000 -5.000000
v 3.000000 1.000000 5.000000
v 1.000000 1.000000 5.000000
v -1.000000 1.000000 5.000000
v -3.000000 1.000000 5.000000
v -3.000000 -1.000000 5.000000
v -1.000000 -1.000000 5.000000
v 1.000000 -1.000000 5.000000
v 3.000000 -1.000000 5.000000
v -3.000000 1.000000 -5.000000
v -1.000000 1.000000 -5.000000
v 1.000000 1.000000 -5.000000
v 3.000000 1.000000 -5.000000
v -5.000000 -1.000000 -3.000000
v -5.000000 -1.000000 -1.000000
v -5.000000 -1.000000 1.000000
v -5.000000 -1.000000 3.000000
v 5.000000 1.000000 -3.000000
v 5.000000 1.000000 -1.000000
v 5.000000 1.000000 1.000000
v 5.000000 1.000000 3.000000
v -5.000000 1.000000 3.000000
v -5.000000 1.000000 1.000000
v -5.000000 1.000000 -1.000000
v -5.000000 1.000000 -3.000000
v 5.000000 -1.000000 3.000000
v 5.000000 -1.000000 1.000000
v 5.000000 -1.000000 -1.000000
v 5.000000 -1.000000 -3.000000
v -3.000000 -1.000000 -3.000000
v -3.000000 -1.000000 -1.000000
v -3.000000 -1.000000 1.000000
v -3.000000 -1.000000 3.000000
v -1.000000 -1.000000 -3.000000
v -1.000000 -1.000000 -1.000000
v -1.000000 -1.000000 1.000000
v -1.000000 -1.000000 3.000000
v 1.000000 -1.000000 -3.000000
v 1.000000 -1.000000 -1.000000
v 1.000000 -1.000000 1.000000
v 1.000000 -1.000000 3.000000
v 3.000000 -1.000000 -3.000000
v 3.000000 -1.000000 -1.000000
v 3.000000 -1.000000 1.000000
v 3.000000 -1.000000 3.000000
v 5.000000 -0.000000 -5.000000
v 5.000000 0.000000 5.000000
v -5.000000 -0.000000 -5.000000
v -5.000000 0.000000 5.000000
v -1.000000 -0.000000 -5.000000
v 3.000000 -0.000000 -5.000000
v -5.000000 0.000000 1.000000
v -5.000000 -0.000000 -3.000000
v 5.000000 0.000000 1.000000
v 5.000000 -0.000000 -3.000000
v 5.000000 -0.000000 -1.000000
v 5.000000 0.000000 3.000000
v 3.000000 0.000000 5.000000
v -1.000000 0.000000 5.000000
v -3.000000 0.000000 5.000000
v 1.000000 0.000000 5.000000
v -3.000000 -0.000000 -5.000000
v 1.000000 -0.000000 -5.000000
v -5.000000 0.000000 3.000000
v -5.000000 -0.000000 -1.000000
v 5.000000 1.000000 4.000000
v 5.000000 -1.000000 4.000000
v 5.000000 0.000000 4.000000
v 5.000000 1.000000 2.000000
v 5.000000 -1.000000 2.000000
v 5.000000 0.000000 2.000000
v 5.000000 -1.000000 0.000000
v 5.000000 1.000000 -0.000000
v 5.000000 0.000000 0.000000
v 5.000000 1.000000 -2.000000
v 5.000000 -1.000000 -2.000000
v 5.000000 -0.000000 -2.000000
v 5.000000 1.000000 -4.000000
v 5.000000 -1.000000 -4.000000
v 5.000000 -0.000000 -4.000000
v 2.000000 -1.000000 -5.000000
v 2.000000 1.000000 -5.000000
v 2.000000 -0.000000 -5.000000
v 4.000000 1.000000 -5.000000
v 4.000000 -1.000000 -5.000000
v 4.000000 -0.000000 -5.000000
v 0.000000 1.000000 -5.000000
v 0.000000 -1.000000 -5.000000
v 0.000000 -0.000000 -5.000000
v -2.000000 1.000000 -5.000000
v -2.000000 -1.000000 -5.000000
v -2.000000 -0.000000 -5.000000
v -4.000000 1.000000 -5.000000
v -4.000000 -1.000000 -5.000000
v -4.000000 -0.000000 -5.000000
v -5.000000 -1.000000 -2.000000
v -5.000000 1.000000 -2.000000
v -5.000000 -0.000000 -2.000000
v -5.000000 1.000000 -0.000000
v -5.000000 -1.000000 0.000000
v -5.000000 0.000000 0.000000
v -5.000000 -1.000000 2.000000
v -5.000000 1.000000 2.000000
v -5.000000 0.000000 2.000000
v -5.000000 1.000000 4.000000
v -5.000000 -1.000000 4.000000
v -5.000000 0.000000 4.000000
v -4.000000 1.000000 5.000000
v -4.000000 -1.000000 5.000000
v -4.000000 0.000000 5.000000
v -2.000000 1.000000 5.000000
v -2.000000 -1.000000 5.000000
v -2.000000 0.000000 5.000000
v 0.000000 1.000000 5.000000
v 0.000000 -1.000000 5.000000
v 0.000000 0.000000 5.000000
v 2.000000 1.000000 5.000000
v 2.000000 -1.000000 5.000000
v 2.000000 0.000000 5.000000
v -5.000000 1.000000 -4.000000
v -5.000000 -1.000000 -4.000000
v -5.000000 -0.000000 -4.000000
v 4.000000 1.000000 5.000000
v 4.000000 -1.000000 5.000000
v 4.000000 0.000000 5.000000
v -1.999737 -1.000000 3.999737
v -3.000000 -1.000000 3.998890
v 3.999914 -1.000000 3.999914
v -1.000000 -1.000000 3.999137
v 0.000228 -1.000000 3.999772
v 3.000000 -1.000000 3.998696
v 2.000212 -1.000000 3.999788
v 1.000000 -1.000000 3.998434
v -3.999634 -1.000000 3.999634
v -3.999752 -1.000000 1.999752
v 4.000497 -1.000000 1.999503
v 0.000277 -1.000000 1.999723
v -1.000000 -1.000000 1.998615
v -3.000000 -1.000000 1.999103
v -1.999470 -1.000000 1.999470
v 1.000000 -1.000000 1.998756
v 2.000462 -1.000000 1.999538
v 3.000000 -1.000000 1.999266
v 1.000000 -1.000000 0.000273
v 3.999852 -1.000000 0.000148
v -1.000000 -1.000000 0.000109
v 1.999966 -1.000000 0.000034
v -3.000000 -1.000000 -0.000021
v -2.000132 -1.000000 0.000132
v -4.000188 -1.000000 0.000188
v 3.000000 -1.000000 -0.000018
v 0.000094 -1.000000 -0.000094
v 3.999885 -1.000000 -1.999884
v -1.000000 -1.000000 -1.999712
v -3.999931 -1.000000 -2.000069
v 1.999857 -1.000000 -1.999857
v -0.000005 -1.000000 -1.999995
v -2.000090 -1.000000 -1.999910
v 1.000000 -1.000000 -1.999902
v 3.000000 -1.000000 -1.999799
v -3.000000 -1.000000 -1.999807
v -3.000000 -1.000000 -3.999775
v -1.000000 -1.000000 -3.999902
v -2.000239 -1.000000 -3.999761
v -0.000052 -1.000000 -3.999948
v 4.000176 -1.000000 -4.000176
v 1.000000 -1.000000 -4.000173
v 1.999998 -1.000000 -3.999998
v 3.000000 -1.000000 -4.000022
v -4.000123 -1.000000 -4.000123
v 4.000104 -1.000000 1.000000
v 4.000023 -1.000000 -1.000000
v 3.999950 -1.000000 3.000000
v 4.000284 -1.000000 -3.000000
v 2.000059 -1.000000 1.000000
v 2.000091 -1.000000 -1.000000
v 2.000037 -1.000000 3.000000
v 1.999993 -1.000000 -3.000000
v 0.000000 -1.000000 1.000000
v 0.000002 -1.000000 -1.000000
v -0.000000 -1.000000 -3.000000
v -0.000008 -1.000000 3.000000
v -1.999990 -1.000000 1.000000
v -2.000013 -1.000000 -1.000000
v -2.000012 -1.000000 -3.000000
v -2.000073 -1.000000 3.000000
v -4.000061 -1.000000 3.000000
v -4.000079 -1.000000 1.000000
v -4.000090 -1.000000 -3.000000
v -3.999985 -1.000000 -1.000000
vn -0.0000 -0.0000 1.0000
vn -1.0000 -0.0000 -0.0000
vn -0.0000 -1.0000 -0.0000
vn 1.0000 -0.0000 -0.0000
vn -0.0000 -0.0000 -1.0000
vn -0.0000 1.0000 -0.0000
vt 0.000000 0.500000
vt 1.000000 0.750000
vt 1.000000 0.500000
vt 0.000000 0.250000
vt 0.500000 0.125000
vt 0.500000 0.250000
vt 0.500000 0.125000
vt 1.000000 0.250000
vt 0.000000 0.000000
vt 0.500000 0.125000
vt 0.000000 0.125000
vt 0.500000 0.125000
vt 0.000000 0.125000
vt 0.500000 0.125000
vt 0.000000 0.125000
vt 0.000000 0.125000
vt 1.000000 0.000000
vt 0.500000 0.125000
vt 1.000000 0.125000
vt 0.500000 0.125000
vt 0.000000 0.125000
vt 0.500000 0.125000
vt 1.000000 0.125000
vt 0.500000 0.125000
vt 1.000000 0.125000
vt 0.500000 0.125000
vt 0.000000 0.125000
vt 0.500000 0.125000
vt 1.000000 0.125000
vt 0.500000 0.125000
vt 1.000000 0.125000
vt 0.500000 0.125000
vt 0.000000 0.125000
vt 0.500000 0.125000
vt 1.000000 0.125000
vt 0.500000 0.125000
vt 0.500000 0.125000
vt 0.500000 0.125000
vt 0.500000 0.125000
vt 1.000000 0.125000
vt 0.500000 0.125000
vt 0.000000 0.125000
vt 0.500000 0.125000
vt 1.000000 0.125000
vt 0.500000 0.000000
vt 0.500000 0.125000
vt 0.500000 0.125000
vt 0.500000 0.125000
vt 0.000000 0.750000
vt 0.500000 0.125000
vt 0.500000 0.125000
vt 1.000000 0.125000
vt 0.000000 0.125000
vt 1.000000 0.125000
vt 0.000000 0.125000
vt 1.000000 0.125000
vt 0.000000 0.125000
s 0
usemtl Material.001
f 71/1/1 123/2/1 124/3/1
f 64/1/2 107/2/2 109/3/2
f 6/4/3 181/5/3 132/6/3
f 68/1/4 81/2/4 82/3/4
f 62/1/5 92/2/5 94/3/5
f 59/1/2 132/2/2 133/3/2
f 73/1/5 105/2/5 106/3/5
f 61/1/5 102/2/5 103/3/5
f 28/4/3 145/7/3 8/8/3
f 48/9/3 137/10/3 197/11/3
f 52/9/3 141/12/3 193/13/3
f 56/9/3 143/14/3 188/15/3
f 58/1/4 78/2/4 79/3/4
f 69/1/1 135/2/1 136/3/1
f 72/1/1 129/2/1 130/3/1
f 70/1/1 126/2/1 127/3/1
f 95/8/5 62/1/5 24/4/5
f 9/9/6 10/4/6 92/16/6
f 53/17/3 167/18/3 189/19/3
f 54/9/3 158/20/3 187/21/3
f 55/17/3 153/22/3 186/23/3
f 10/9/6 11/4/6 99/16/6
f 49/17/3 168/24/3 192/25/3
f 50/9/3 163/26/3 191/27/3
f 51/17/3 148/28/3 190/29/3
f 11/9/6 12/4/6 102/16/6
f 45/17/3 169/30/3 196/31/3
f 46/9/3 160/32/3 195/33/3
f 47/17/3 151/34/3 194/35/3
f 131/8/2 64/1/2 36/4/2
f 25/8/3 166/36/3 26/4/3
f 26/4/3 161/37/3 27/8/3
f 27/8/3 146/38/3 28/4/3
f 57/1/5 96/2/5 97/3/5
f 66/1/4 90/2/4 91/3/4
f 67/1/4 87/2/4 88/3/4
f 65/1/4 83/2/4 85/3/4
f 2/9/6 9/4/6 96/16/6
f 40/17/3 164/39/3 185/40/3
f 39/9/3 156/41/3 183/42/3
f 38/17/3 147/43/3 182/44/3
f 75/1/2 117/2/2 118/3/2
f 63/1/2 113/2/2 115/3/2
f 76/1/2 111/2/2 112/3/2
f 119/8/1 71/1/1 16/4/1
f 134/8/1 58/1/1 3/4/1
f 17/17/3 145/7/3 138/45/3
f 18/17/3 137/10/3 140/45/3
f 19/17/3 141/12/3 144/45/3
f 20/17/3 143/14/3 142/45/3
f 9/9/3 180/45/3 179/46/3
f 53/17/3 171/45/3 167/18/3
f 54/9/3 162/45/3 158/20/3
f 55/17/3 154/45/3 153/22/3
f 10/9/3 178/45/3 176/47/3
f 49/17/3 170/45/3 168/24/3
f 50/9/3 155/45/3 163/26/3
f 51/17/3 152/45/3 148/28/3
f 11/9/3 174/45/3 175/48/3
f 45/17/3 165/45/3 169/30/3
f 46/9/3 157/45/3 160/32/3
f 47/17/3 149/45/3 151/34/3
f 133/3/2 25/49/2 64/1/2
f 41/17/3 172/45/3 166/36/3
f 42/9/3 159/45/3 161/37/3
f 43/17/3 150/45/3 146/38/3
f 40/17/3 177/50/3 2/9/3
f 39/9/3 164/39/3 40/17/3
f 38/17/3 156/41/3 39/9/3
f 37/9/3 147/43/3 38/17/3
f 60/1/1 120/2/1 121/3/1
f 74/1/5 99/2/5 100/3/5
f 23/4/5 100/3/5 98/8/5
f 7/4/1 121/3/1 119/8/1
f 35/4/2 112/3/2 110/8/2
f 34/4/2 115/3/2 114/8/2
f 33/4/2 118/3/2 116/8/2
f 31/4/4 85/3/4 84/8/4
f 30/4/4 88/3/4 86/8/4
f 29/4/4 91/3/4 89/8/4
f 1/4/5 97/3/5 95/8/5
f 15/4/1 127/3/1 125/8/1
f 14/4/1 130/3/1 128/8/1
f 13/4/1 136/3/1 134/8/1
f 3/4/4 79/3/4 77/8/4
f 22/4/5 103/3/5 101/8/5
f 21/4/5 106/3/5 104/8/5
f 5/4/2 133/3/2 131/8/2
f 24/4/5 94/3/5 93/8/5
f 32/4/4 82/3/4 80/8/4
f 36/4/2 109/3/2 108/8/2
f 16/4/1 124/3/1 122/8/1
f 77/8/4 68/1/4 32/4/4
f 79/3/4 37/49/4 68/1/4
f 80/8/4 65/1/4 31/4/4
f 82/3/4 38/49/4 65/1/4
f 84/8/4 67/1/4 30/4/4
f 85/3/4 39/49/4 67/1/4
f 86/8/4 66/1/4 29/4/4
f 88/3/4 40/49/4 66/1/4
f 89/8/4 57/1/4 1/4/4
f 91/3/4 2/49/4 57/1/4
f 93/8/5 74/1/5 23/4/5
f 94/3/5 10/49/5 74/1/5
f 97/3/5 9/49/5 62/1/5
f 98/8/5 61/1/5 22/4/5
f 100/3/5 11/49/5 61/1/5
f 101/8/5 73/1/5 21/4/5
f 103/3/5 12/49/5 73/1/5
f 104/8/5 59/1/5 5/4/5
f 106/3/5 6/49/5 59/1/5
f 108/8/2 76/1/2 35/4/2
f 109/3/2 26/49/2 76/1/2
f 110/8/2 63/1/2 34/4/2
f 112/3/2 27/49/2 63/1/2
f 114/8/2 75/1/2 33/4/2
f 115/3/2 28/49/2 75/1/2
f 116/8/2 60/1/2 7/4/2
f 118/3/2 8/49/2 60/1/2
f 121/3/1 17/49/1 71/1/1
f 122/8/1 70/1/1 15/4/1
f 124/3/1 18/49/1 70/1/1
f 125/8/1 72/1/1 14/4/1
f 127/3/1 19/49/1 72/1/1
f 128/8/1 69/1/1 13/4/1
f 130/3/1 20/49/1 69/1/1
f 4/17/3 139/51/3 78/45/3
f 136/3/1 4/49/1 58/1/1
f 71/1/1 17/49/1 123/2/1
f 64/1/2 25/49/2 107/2/2
f 105/16/3 181/5/3 6/4/3
f 68/1/4 37/49/4 81/2/4
f 62/1/5 9/49/5 92/2/5
f 59/1/2 6/49/2 132/2/2
f 73/1/5 12/49/5 105/2/5
f 61/1/5 11/49/5 102/2/5
f 8/8/6 117/6/6 28/4/6
f 58/1/4 4/49/4 78/2/4
f 69/1/1 20/49/1 135/2/1
f 72/1/1 19/49/1 129/2/1
f 70/1/1 18/49/1 126/2/1
f 95/8/5 97/3/5 62/1/5
f 179/46/3 10/4/3 9/9/3
f 176/47/3 11/4/3 10/9/3
f 175/48/3 12/4/3 11/9/3
f 131/8/2 133/3/2 64/1/2
f 26/4/2 107/6/2 25/8/2
f 27/8/6 111/6/6 26/4/6
f 28/4/2 113/6/2 27/8/2
f 57/1/5 2/49/5 96/2/5
f 66/1/4 40/49/4 90/2/4
f 67/1/4 39/49/4 87/2/4
f 65/1/4 38/49/4 83/2/4
f 177/50/3 9/4/3 2/9/3
f 75/1/2 28/49/2 117/2/2
f 63/1/2 27/49/2 113/2/2
f 76/1/2 26/49/2 111/2/2
f 119/8/1 121/3/1 71/1/1
f 134/8/1 136/3/1 58/1/1
f 17/17/6 120/52/6 8/8/6
f 18/17/6 123/52/6 17/8/6
f 19/17/6 126/52/6 18/8/6
f 20/17/6 129/52/6 19/8/6
f 133/3/2 132/2/2 25/49/2
f 2/9/2 90/45/2 40/17/2
f 40/17/4 87/45/4 39/9/4
f 39/9/6 83/45/6 38/17/6
f 38/17/4 81/45/4 37/9/4
f 60/1/1 8/49/1 120/2/1
f 74/1/5 10/49/5 99/2/5
f 23/4/5 74/1/5 100/3/5
f 7/4/1 60/1/1 121/3/1
f 35/4/2 76/1/2 112/3/2
f 34/4/2 63/1/2 115/3/2
f 33/4/2 75/1/2 118/3/2
f 31/4/4 65/1/4 85/3/4
f 30/4/4 67/1/4 88/3/4
f 29/4/4 66/1/4 91/3/4
f 1/4/5 57/1/5 97/3/5
f 15/4/1 70/1/1 127/3/1
f 14/4/1 72/1/1 130/3/1
f 13/4/1 69/1/1 136/3/1
f 3/4/4 58/1/4 79/3/4
f 22/4/5 61/1/5 103/3/5
f 21/4/5 73/1/5 106/3/5
f 5/4/2 59/1/2 133/3/2
f 24/4/5 62/1/5 94/3/5
f 32/4/4 68/1/4 82/3/4
f 36/4/2 64/1/2 109/3/2
f 16/4/1 71/1/1 124/3/1
f 77/8/4 79/3/4 68/1/4
f 79/3/4 78/2/4 37/49/4
f 80/8/4 82/3/4 65/1/4
f 82/3/4 81/2/4 38/49/4
f 84/8/4 85/3/4 67/1/4
f 85/3/4 83/2/4 39/49/4
f 86/8/4 88/3/4 66/1/4
f 88/3/4 87/2/4 40/49/4
f 89/8/4 91/3/4 57/1/4
f 91/3/4 90/2/4 2/49/4
f 93/8/5 94/3/5 74/1/5
f 94/3/5 92/2/5 10/49/5
f 97/3/5 96/2/5 9/49/5
f 98/8/5 100/3/5 61/1/5
f 100/3/5 99/2/5 11/49/5
f 101/8/5 103/3/5 73/1/5
f 103/3/5 102/2/5 12/49/5
f 104/8/5 106/3/5 59/1/5
f 106/3/5 105/2/5 6/49/5
f 108/8/2 109/3/2 76/1/2
f 109/3/2 107/2/2 26/49/2
f 110/8/2 112/3/2 63/1/2
f 112/3/2 111/2/2 27/49/2
f 114/8/2 115/3/2 75/1/2
f 115/3/2 113/2/2 28/49/2
f 116/8/2 118/3/2 60/1/2
f 118/3/2 117/2/2 8/49/2
f 121/3/1 120/2/1 17/49/1
f 122/8/1 124/3/1 70/1/1
f 124/3/1 123/2/1 18/49/1
f 125/8/1 127/3/1 72/1/1
f 127/3/1 126/2/1 19/49/1
f 128/8/1 130/3/1 69/1/1
f 130/3/1 129/2/1 20/49/1
f 56/4/3 139/51/3 142/6/3
f 136/3/1 135/2/1 4/49/1
f 139/51/3 20/8/3 142/6/3
f 140/6/3 141/12/3 18/8/3
f 139/51/3 37/9/3 78/45/3
f 144/45/3 141/12/3 52/9/3
f 144/6/3 143/14/3 19/8/3
f 142/45/3 143/14/3 56/9/3
f 138/45/3 145/7/3 44/9/3
f 138/6/3 137/10/3 17/8/3
f 140/45/3 137/10/3 48/9/3
f 152/6/3 153/22/3 52/4/3
f 151/34/3 48/9/3 197/11/3
f 149/6/3 148/28/3 48/4/3
f 146/38/3 44/9/3 198/53/3
f 150/6/3 151/34/3 44/4/3
f 148/28/3 193/13/3 48/4/3
f 153/22/3 188/15/3 52/4/3
f 154/6/3 147/43/3 56/4/3
f 159/6/3 160/32/3 43/8/3
f 161/37/3 43/17/3 199/54/3
f 162/45/3 186/23/3 158/20/3
f 162/6/3 156/41/3 55/8/3
f 155/6/3 158/20/3 51/8/3
f 155/45/3 190/29/3 163/26/3
f 157/6/3 163/26/3 47/8/3
f 160/32/3 194/35/3 43/8/3
f 165/45/3 195/33/3 169/30/3
f 171/45/3 187/21/3 167/18/3
f 171/6/3 164/39/3 54/4/3
f 170/6/3 167/18/3 50/4/3
f 170/45/3 191/27/3 168/24/3
f 165/6/3 168/24/3 46/4/3
f 172/45/3 201/55/3 166/36/3
f 172/6/3 169/30/3 42/4/3
f 176/47/3 49/17/3 192/25/3
f 180/6/3 177/50/3 53/8/3
f 174/45/3 196/31/3 175/48/3
f 181/5/3 173/45/3 41/17/3
f 173/6/3 175/48/3 41/8/3
f 132/6/3 200/56/3 25/8/3
f 174/6/3 176/47/3 45/8/3
f 179/46/3 53/17/3 189/19/3
f 178/6/3 179/46/3 49/8/3
f 135/52/3 139/51/3 4/17/3
f 156/41/3 182/44/3 55/8/3
f 164/39/3 53/8/3 185/40/3
f 147/43/3 184/57/3 56/4/3
f 184/57/3 139/51/3 56/4/3
f 177/50/3 185/40/3 53/8/3
f 156/41/3 54/4/3 183/42/3
f 164/39/3 183/42/3 54/4/3
f 182/44/3 154/6/3 55/8/3
f 186/23/3 152/6/3 51/8/3
f 153/22/3 56/9/3 188/15/3
f 188/15/3 144/6/3 52/4/3
f 167/18/3 49/8/3 189/19/3
f 186/23/3 51/8/3 158/20/3
f 187/21/3 50/4/3 167/18/3
f 189/19/3 49/8/3 179/46/3
f 158/20/3 50/4/3 187/21/3
f 148/28/3 52/9/3 193/13/3
f 193/13/3 140/6/3 48/4/3
f 190/29/3 149/6/3 47/8/3
f 190/29/3 47/8/3 163/26/3
f 191/27/3 46/4/3 168/24/3
f 168/24/3 45/8/3 192/25/3
f 192/25/3 45/8/3 176/47/3
f 163/26/3 46/4/3 191/27/3
f 195/33/3 159/6/3 42/4/3
f 196/31/3 41/8/3 175/48/3
f 195/33/3 42/4/3 169/30/3
f 169/30/3 41/8/3 196/31/3
f 194/35/3 150/6/3 43/8/3
f 197/11/3 138/6/3 44/4/3
f 197/11/3 44/4/3 151/34/3
f 194/35/3 157/45/3 47/17/3
f 201/55/3 26/4/3 166/36/3
f 200/56/3 181/5/3 41/17/3
f 199/54/3 27/8/3 161/37/3
f 161/37/3 201/55/3 42/9/3
f 181/5/3 12/9/3 173/45/3
f 198/53/3 28/4/3 146/38/3
f 145/7/3 198/53/3 44/9/3
f 146/38/3 199/54/3 43/17/3
f 166/36/3 200/56/3 41/17/3
f 28/4/3 198/53/3 145/7/3
f 25/8/3 200/56/3 166/36/3
f 26/4/3 201/55/3 161/37/3
f 27/8/3 199/54/3 146/38/3
f 17/17/3 8/8/3 145/7/3
f 18/17/3 17/8/3 137/10/3
f 19/17/3 18/8/3 141/12/3
f 20/17/3 19/8/3 143/14/3
f 40/17/3 185/40/3 177/50/3
f 39/9/3 183/42/3 164/39/3
f 38/17/3 182/44/3 156/41/3
f 37/9/3 184/57/3 147/43/3
f 179/46/3 178/6/3 10/4/3
f 176/47/3 174/6/3 11/4/3
f 175/48/3 173/6/3 12/4/3
f 177/50/3 180/6/3 9/4/3
f 139/51/3 135/52/3 20/8/3
f 139/51/3 184/57/3 37/9/3
f 151/34/3 149/45/3 48/9/3
f 146/38/3 150/45/3 44/9/3
f 161/37/3 159/45/3 43/17/3
f 162/45/3 55/17/3 186/23/3
f 155/45/3 51/17/3 190/29/3
f 165/45/3 46/9/3 195/33/3
f 171/45/3 54/9/3 187/21/3
f 170/45/3 50/9/3 191/27/3
f 172/45/3 42/9/3 201/55/3
f 176/47/3 178/45/3 49/17/3
f 174/45/3 45/17/3 196/31/3
f 132/6/3 181/5/3 200/56/3
f 179/46/3 180/45/3 53/17/3
f 164/39/3 171/6/3 53/8/3
f 156/41/3 162/6/3 54/4/3
f 182/44/3 147/43/3 154/6/3
f 186/23/3 153/22/3 152/6/3
f 153/22/3 154/45/3 56/9/3
f 188/15/3 143/14/3 144/6/3
f 167/18/3 170/6/3 49/8/3
f 158/20/3 155/6/3 50/4/3
f 148/28/3 152/45/3 52/9/3
f 193/13/3 141/12/3 140/6/3
f 190/29/3 148/28/3 149/6/3
f 168/24/3 165/6/3 45/8/3
f 163/26/3 157/6/3 46/4/3
f 195/33/3 160/32/3 159/6/3
f 169/30/3 172/6/3 41/8/3
f 194/35/3 151/34/3 150/6/3
f 197/11/3 137/10/3 138/6/3
f 194/35/3 160/32/3 157/45/3
f 181/5/3 105/16/3 12/9/3
